<svg width="429" height="386" viewBox="0 0 429 386" fill="none" xmlns="http://www.w3.org/2000/svg">
<g clip-path="url(#clip0_105_2)">
<path d="M16.4199 0H412.568C421.643 0 429 6.58668 429 14.7118V224.495C429 232.267 422.214 238.668 413.671 239.162C413.308 239.196 412.944 239.207 412.568 239.207H313.952V236.961H412.568C412.944 236.961 413.308 236.95 413.671 236.916C420.834 236.411 426.491 231.031 426.491 224.495V14.7005C426.491 7.82213 420.263 2.24608 412.58 2.24608H16.42C8.73706 2.24608 2.50879 7.82218 2.50879 14.7007V174.318C2.50879 208.915 33.8352 236.961 72.4784 236.961L72.4785 239.207H16.42C7.3515 239.207 0 232.625 0 224.506V14.7005C0 6.58165 7.35141 0 16.4199 0Z" fill="#E6E6E6"/>
<path d="M93.9225 53.5233H178.073C180.96 53.5233 183.309 51.4204 183.309 48.8358C183.309 46.2512 180.96 44.1483 178.073 44.1483H93.9225C91.0356 44.1483 88.6868 46.2512 88.6868 48.8358C88.6868 51.4204 91.0356 53.5233 93.9225 53.5233Z" fill="#F2F2F2"/>
<path d="M314.694 69.2458H398.845C401.732 69.2458 404.081 67.1429 404.081 64.5583C404.081 61.9737 401.732 59.8708 398.845 59.8708H314.694C311.808 59.8708 309.459 61.9737 309.459 64.5583C309.459 67.1429 311.808 69.2458 314.694 69.2458Z" fill="#F2F2F2"/>
<path d="M28.2512 69.3886H178.073C180.96 69.3886 183.309 67.2857 183.309 64.7011C183.309 62.1165 180.96 60.0136 178.073 60.0136H28.2512C25.3644 60.0136 23.0155 62.1165 23.0155 64.7011C23.0155 67.2857 25.3644 69.3886 28.2512 69.3886Z" fill="#F2F2F2"/>
<path d="M315.206 373.602V108.655C315.206 101.818 308.995 96.2563 301.358 96.2563H85.704C78.0681 96.2563 71.8555 101.818 71.8555 108.655V338.787C71.8555 345.624 78.0681 351.186 85.704 351.186L301.358 386C308.995 386 315.206 380.438 315.206 373.602ZM74.3643 108.655C74.3643 103.048 79.4413 98.5024 85.704 98.5024H301.358C307.621 98.5024 312.698 103.048 312.698 108.655V373.602C312.698 379.209 307.621 383.754 301.358 383.754C301.358 383.754 74.3643 305.843 74.3643 252.681V108.655Z" fill="#3F3D56"/>
<path d="M34.3939 332.459C44.3285 332.459 52.4109 325.223 52.4109 316.328C52.4109 307.434 44.3285 300.197 34.3939 300.197C24.4586 300.197 16.3761 307.434 16.3761 316.328C16.3761 325.223 24.4586 332.459 34.3939 332.459ZM34.3939 302.443C42.9449 302.443 49.9022 308.672 49.9022 316.328C49.9022 323.984 42.9449 330.213 34.3939 330.213C25.8422 330.213 18.8849 323.984 18.8849 316.328C18.8849 308.672 25.8422 302.443 34.3939 302.443Z" fill="#3F3D56"/>
<path d="M38.0052 323.763C38.3469 323.763 38.6875 323.638 38.9349 323.394C39.4004 322.934 39.3612 322.224 38.8467 321.808L31.8864 316.165L38.1877 309.933C38.6532 309.474 38.6128 308.764 38.0995 308.348C37.5862 307.931 36.7924 307.966 36.3282 308.426L29.1853 315.49C28.7198 315.95 28.759 316.66 29.2735 317.076L37.1636 323.472C37.4037 323.667 37.7051 323.763 38.0052 323.763Z" fill="#3F3D56"/>
<path d="M353.35 332.459C363.285 332.459 371.367 325.223 371.367 316.328C371.367 307.434 363.285 300.197 353.35 300.197C343.415 300.197 335.333 307.434 335.333 316.328C335.333 325.223 343.415 332.459 353.35 332.459ZM353.35 302.443C361.901 302.443 368.859 308.672 368.859 316.328C368.859 323.984 361.901 330.213 353.35 330.213C344.799 330.213 337.841 323.984 337.841 316.328C337.841 308.672 344.799 302.443 353.35 302.443Z" fill="#3F3D56"/>
<path d="M349.6 323.763C349.9 323.763 350.202 323.667 350.442 323.472L358.332 317.076C358.846 316.66 358.885 315.95 358.42 315.49L351.277 308.426C350.813 307.966 350.019 307.931 349.506 308.348C348.992 308.764 348.952 309.474 349.418 309.933L355.719 316.165L348.759 321.808C348.244 322.224 348.205 322.934 348.67 323.394C348.918 323.638 349.258 323.763 349.6 323.763Z" fill="#3F3D56"/>
<path d="M217.611 52.2829C213.837 52.0826 210.587 54.6086 209.087 56.5675C207.648 58.4464 205.475 58.3656 204.216 63.1869C202.863 68.3646 204.657 77.7794 206.042 80.3712C207.4 82.9108 203.278 84.7552 204.216 88.4645C204.725 90.4783 206.589 92.5022 209.087 93.2252C210.289 93.5732 212.048 93.7387 217.611 91.797C224.651 89.3402 228.171 88.1117 229.789 85.608C231.4 83.1145 229.805 81.8338 228.571 75.1344C226.743 65.2157 229.222 62.5035 225.526 57.5197C224.385 55.9803 221.809 52.5056 217.611 52.2829Z" fill="#2F2E41"/>
<path d="M294.159 212.868C293.511 210.908 292.423 209.241 291.136 208.056L286.285 189.032L276.241 191.363L282.244 210.411C281.884 212.031 281.983 213.96 282.631 215.92C284.11 220.399 287.89 223.346 291.073 222.503C294.257 221.66 295.638 217.347 294.159 212.868Z" fill="#FFB6B6"/>
<path d="M150.294 99.4988C150.473 101.537 151.152 103.37 152.136 104.767L152.477 124.278L162.842 123.862L161.381 104.114C162.108 102.596 162.458 100.691 162.278 98.6526C161.868 93.9967 158.853 90.4118 155.543 90.6455C152.234 90.8792 149.884 94.8429 150.294 99.4988Z" fill="#FFB6B6"/>
<path d="M274.509 369.714L266.952 369.874L262.739 339.477L273.892 339.241L274.509 369.714Z" fill="#FFB6B6"/>
<path d="M248.581 383.83C248.581 384.973 249.487 385.899 250.605 385.899H265.605C265.605 385.899 267.082 380.587 273.1 378.3L273.516 385.899H281.254L280.316 373.681C280.316 373.681 282.386 367.144 278.087 363.802C273.788 360.461 277.27 360.926 277.27 360.926L275.579 353.364L263.886 354.595L263.8 366.466L258.125 378.249L249.802 381.93C249.061 382.258 248.581 383.004 248.581 383.83Z" fill="#2F2E41"/>
<path d="M235.807 356.472L228.483 358.148L216.75 329.376L227.558 326.902L235.807 356.472Z" fill="#FFB6B6"/>
<path d="M214.085 375.443C214.372 376.557 215.488 377.277 216.577 377.052L231.193 374.035C231.193 374.035 231.299 368.561 236.589 365.123L238.901 372.443L246.442 370.887L242.461 359.169C242.461 359.169 242.838 352.383 237.81 349.992C232.782 347.601 236.292 347.354 236.292 347.354L232.746 340.325L221.661 343.877L224.557 355.462L221.984 368.085L214.798 373.346C214.158 373.814 213.878 374.638 214.085 375.443Z" fill="#2F2E41"/>
<path d="M216.698 163.762L213.653 210.097L186.115 278.257L212.935 332.094H237.493L214.856 282.681L248.664 214.731L258.861 355.673L279.412 355.645L282.761 210.915C282.761 210.915 289.154 169.213 264.799 152.314L216.698 163.762Z" fill="#2F2E41"/>
<path d="M219.142 90.9233C222.394 89.7534 225.72 88.5683 229.22 88.4038C232.719 88.2393 236.487 89.278 238.564 91.8054C240.333 93.9581 240.653 96.8569 242.42 99.0106C246.752 104.29 256.668 102.276 262.235 106.527C267.34 110.426 266.546 117.631 264.634 123.39C262.722 129.148 260.166 135.492 263.067 140.909C265.333 145.14 270.774 148.463 270.134 153.12C269.581 157.148 264.765 159.375 260.569 160.911L236.57 169.699C231.92 171.402 227.1 173.133 222.079 173.006C217.057 172.878 211.748 170.371 210.3 166.064C208.935 162.004 211.25 157.609 210.467 153.427C209.861 150.193 207.493 147.49 205.439 144.775C197.908 134.826 193.778 122.842 193.739 110.823C205.366 108.729 215.223 100.189 217.944 89.8548" fill="#6C63FF"/>
<path d="M202.532 125.429L169.989 151.742C166.217 154.792 161.218 158.061 156.526 156.314C153.97 155.363 152.288 153.064 151.591 150.666C150.894 148.268 151.034 145.747 151.18 143.273C151.789 132.911 149.678 122.131 150.287 111.769C153.53 110.565 159.495 109.781 162.738 108.577L166.823 131.804L190.181 113.11C192.886 110.946 196.105 108.632 199.695 109.093C203.455 109.577 205.965 113.118 206.153 116.515C206.342 119.911 204.775 123.168 203.179 126.254" fill="#6C63FF"/>
<path d="M258.706 109.125C260.655 106.88 264.872 107.384 267.125 109.388C269.377 111.392 270.179 114.322 270.886 117.094L291.966 199.767L279.002 203.839L262.335 158.763C259.296 150.547 256.243 142.275 254.914 133.702C253.585 125.129 254.066 116.146 257.897 108.199" fill="#6C63FF"/>
<path d="M226.44 88.2625C215.847 88.2625 207.26 80.5746 207.26 71.0912C207.26 61.6077 215.847 53.9198 226.44 53.9198C237.032 53.9198 245.619 61.6077 245.619 71.0912C245.619 80.5746 237.032 88.2625 226.44 88.2625Z" fill="#FFB6B6"/>
<path d="M211.522 54.465C212.075 51.578 216.043 49.4391 219.438 49.0137C222.301 48.655 223.023 49.7326 229.789 50.6491C233.406 51.1391 233.244 50.8371 235.269 51.1942C237.603 51.606 243.764 52.6924 247.446 57.1906C250.213 60.5696 256.133 68.5332 254.372 72.8564C253.42 75.1922 247.129 74.4331 248.055 76.2698C248.653 77.4558 249.836 77.5542 251.099 78.4503C254.281 80.7079 255.247 86.0984 253.535 89.3528C251.509 93.2032 245.855 93.8311 237.095 94.804C228.071 95.8063 219.621 95.0843 219.438 93.7138C219.344 93.0143 221.494 92.8124 222.482 90.9881C223.64 88.8508 222.01 86.6927 221.264 84.4467C218.939 77.4387 229.731 80.1 227.399 74.9186C227.318 74.7369 227.223 74.5075 227.119 74.2396C225.394 69.8002 222.077 62.8383 222.077 62.8383C222.077 62.8383 219.889 67.0668 219.873 67.0573C217.257 65.4473 207.732 69.1108 206.075 67.0573C203.41 63.7541 211.398 55.1163 211.522 54.465Z" fill="#2F2E41"/>
<path d="M138.052 113.467C147.987 113.467 156.069 106.23 156.069 97.3355C156.069 88.4412 147.987 81.205 138.052 81.205C128.116 81.205 120.034 88.4412 120.034 97.3355C120.034 106.23 128.116 113.467 138.052 113.467ZM138.052 83.4511C146.603 83.4511 153.561 89.6799 153.561 97.3355C153.561 104.992 146.603 111.221 138.052 111.221C129.5 111.221 122.543 104.992 122.543 97.3355C122.543 89.6799 129.5 83.4511 138.052 83.4511Z" fill="#3F3D56"/>
<path d="M138.052 105.912C132.761 105.912 128.473 102.072 128.473 97.3357C128.473 92.5993 132.761 88.7598 138.052 88.7598C143.342 88.7598 147.63 92.5993 147.63 97.3357C147.63 102.072 143.342 105.912 138.052 105.912Z" fill="#6C63FF"/>
<path d="M367.013 18.7423H402.212C403.98 18.7423 405.423 20.0338 405.423 21.6173C405.423 23.212 403.98 24.5035 402.212 24.5035H367.013C365.245 24.5035 363.802 23.212 363.802 21.6173C363.802 20.0338 365.245 18.7423 367.013 18.7423Z" fill="#E6E6E6"/>
<path d="M308.057 18.7423H343.255C345.024 18.7423 346.467 20.0338 346.467 21.6173C346.467 23.212 345.024 24.5035 343.255 24.5035H308.057C306.289 24.5035 304.846 23.212 304.846 21.6173C304.846 20.0338 306.289 18.7423 308.057 18.7423Z" fill="#E6E6E6"/>
<path d="M249.101 18.7423H284.299C286.068 18.7423 287.51 20.0338 287.51 21.6173C287.51 23.212 286.068 24.5035 284.299 24.5035H249.101C247.332 24.5035 245.89 23.212 245.89 21.6173C245.89 20.0338 247.332 18.7423 249.101 18.7423Z" fill="#3F3D56"/>
</g>
<defs>
<clipPath id="clip0_105_2">
<rect width="429" height="386" fill="white" transform="matrix(-1 0 0 1 429 0)"/>
</clipPath>
</defs>
</svg>
